<svg xmlns="http://www.w3.org/2000/svg" width="1024" height="1024" viewBox="0 0 256 256">
  <defs>
    <linearGradient id="gd" x1="0" y1="0" x2="1" y2="1">
      <stop offset="0" stop-color="#14245A"/>
      <stop offset="1" stop-color="#1E54BE"/>
    </linearGradient>
    <clipPath id="rr"><rect width="256" height="256" rx="60"/></clipPath>
    <radialGradient id="glowW"><stop offset="0" stop-color="#ffffff" stop-opacity="0.55"/><stop offset="1" stop-color="#ffffff" stop-opacity="0"/></radialGradient>
    <radialGradient id="glowC"><stop offset="0" stop-color="#36E0FF" stop-opacity="0.6"/><stop offset="1" stop-color="#36E0FF" stop-opacity="0"/></radialGradient>
    <radialGradient id="glowM"><stop offset="0" stop-color="#FF5CD0" stop-opacity="0.55"/><stop offset="1" stop-color="#FF5CD0" stop-opacity="0"/></radialGradient>
    <radialGradient id="shadow"><stop offset="0" stop-color="#050C24" stop-opacity="0.55"/><stop offset="1" stop-color="#050C24" stop-opacity="0"/></radialGradient>
  </defs>
  <rect width="256" height="256" rx="60" fill="url(#gd)"/>
  <g clip-path="url(#rr)">
    <circle cx="80" cy="86" r="74" fill="url(#glowC)"/>
    <circle cx="184" cy="158" r="70" fill="url(#glowM)"/>
    <circle cx="150" cy="64" r="48" fill="url(#glowW)"/>
    <circle cx="92" cy="70" r="28" fill="#ffffff" opacity="0.05"/>
    <circle cx="180" cy="150" r="32" fill="#ffffff" opacity="0.05"/>
    <circle cx="62" cy="66" r="3" fill="#ffffff" opacity="0.85"/>
    <circle cx="198" cy="92" r="2.5" fill="#ffffff" opacity="0.7"/>
    <circle cx="72" cy="196" r="2.5" fill="#ffffff" opacity="0.6"/>
    <circle cx="196" cy="200" r="3" fill="#ffffff" opacity="0.7"/>
    <circle cx="146" cy="150" r="2" fill="#ffffff" opacity="0.6"/>
    <circle cx="214" cy="216" r="120" fill="url(#shadow)"/>
    <path d="M100 188 V98 A30 30 0 1 1 130 128" fill="none" stroke="#ffffff" stroke-width="30" stroke-linecap="round" stroke-linejoin="round" opacity="0.12"/>
    <path d="M100 188 V98 A30 30 0 1 1 130 128" fill="none" stroke="#ffffff" stroke-width="17" stroke-linecap="round" stroke-linejoin="round" opacity="0.97"/>
  </g>
</svg>
